<?xml version="1.0" standalone="no"?>
<!DOCTYPE svg PUBLIC "-//W3C//DTD SVG 20010904//EN"
 "http://www.w3.org/TR/2001/REC-SVG-20010904/DTD/svg10.dtd">
<svg version="1.0" xmlns="http://www.w3.org/2000/svg"
 width="866.000000pt" height="650.000000pt" viewBox="0 0 866.000000 650.000000"
 preserveAspectRatio="xMidYMid meet">

<g transform="translate(0.000000,650.000000) scale(0.100000,-0.100000)"
fill="#000000" stroke="none">
<path d="M4246 5549 c-118 -16 -191 -49 -546 -254 -1004 -578 -1179 -680
-1220 -714 -95 -80 -172 -197 -217 -331 -17 -51 -18 -117 -21 -974 -3 -896 -2
-921 18 -1000 37 -149 116 -273 232 -366 32 -25 137 -91 235 -147 143 -81 466
-267 648 -373 514 -298 697 -398 765 -417 102 -30 182 -37 273 -24 149 21 123
7 917 466 375 216 584 336 694 398 210 120 332 267 381 462 13 51 15 191 15
975 0 1022 4 966 -72 1120 -32 67 -58 102 -122 166 -68 67 -107 95 -241 171
-88 50 -259 148 -380 218 -214 124 -639 369 -878 506 -187 107 -316 139 -481
118z m155 -334 c35 -4 141 -60 460 -243 228 -131 559 -321 736 -423 177 -101
322 -187 323 -190 0 -5 -390 -237 -1025 -609 -44 -26 -189 -111 -322 -189
l-242 -142 -348 205 c-191 113 -349 209 -350 213 -2 5 9 16 24 24 132 75 479
275 566 325 l107 63 95 -54 c52 -30 138 -80 190 -110 53 -30 98 -55 101 -55
11 0 314 183 314 190 0 4 -130 83 -290 175 -412 237 -409 237 -737 47 -104
-61 -306 -178 -450 -261 l-261 -151 -164 97 c-89 53 -214 127 -276 164 l-113
67 58 35 c32 19 191 111 353 204 162 93 464 266 670 385 207 119 394 221 415
227 50 14 86 19 105 15 8 -1 36 -5 61 -9z m-1191 -1520 c344 -202 700 -413
793 -467 l167 -100 0 -389 c0 -214 -2 -389 -6 -389 -3 0 -143 80 -312 177
-169 97 -326 187 -349 201 l-43 24 0 201 0 202 -143 84 c-78 47 -152 91 -165
99 l-23 15 3 -339 3 -339 33 -68 c21 -42 49 -80 75 -102 23 -19 186 -117 362
-219 176 -101 374 -215 440 -253 l120 -69 3 -322 c1 -177 0 -322 -3 -322 -2 0
-48 25 -102 57 -54 31 -186 107 -293 168 -107 62 -240 138 -295 170 -188 109
-480 277 -615 353 -177 100 -240 160 -269 256 -21 67 -21 84 -21 908 0 461 3
837 8 835 4 -2 288 -170 632 -372z m2880 -480 c0 -929 2 -889 -62 -982 -41
-61 -2 -37 -718 -448 -113 -65 -326 -187 -475 -273 -148 -85 -285 -163 -302
-174 l-33 -20 0 909 0 908 158 92 c86 50 242 141 346 202 104 61 190 111 192
111 2 0 4 -177 4 -394 l0 -395 -82 -49 c-46 -26 -127 -74 -180 -106 l-98 -57
0 -190 0 -191 33 20 c33 20 409 237 483 279 55 31 120 103 147 161 22 46 22
58 25 584 l3 537 97 57 c342 202 448 263 455 264 4 0 7 -380 7 -845z"/>
</g>
</svg>
